<svg width="375" height="292" viewBox="0 0 375 292" fill="none" xmlns="http://www.w3.org/2000/svg">
<g filter="url(#filter0_d_2_69)">
<path d="M325.445 234.688L288.216 221.494C287.692 221.309 287.136 221.234 286.582 221.275L196.444 228.002C195.426 228.078 194.417 227.761 193.625 227.118L158.922 198.93C158.022 198.199 156.849 197.894 155.707 198.095L35.1368 219.314C32.9691 219.696 30.9005 218.254 30.5077 216.089L5.82596 80.017C5.43032 77.8358 6.88402 75.7488 9.06714 75.3638L93.1147 60.544C94.0597 60.3774 94.9133 59.8766 95.5198 59.133L100.647 52.847C101.254 52.1035 102.107 51.6027 103.052 51.4361L134.912 45.8182C135.957 45.634 136.886 45.0423 137.494 44.1733L141.47 38.4958C142.078 37.6268 143.007 37.0351 144.052 36.8508L186.052 29.4451C186.904 29.2949 187.782 29.4251 188.554 29.8162L192.637 31.885C193.409 32.2761 194.287 32.4063 195.14 32.2561L231.109 25.9137C231.917 25.7712 232.75 25.8808 233.493 26.2275L239.222 28.898C239.966 29.2447 240.799 29.3542 241.607 29.2117L277.824 22.8257C278.522 22.7027 279.239 22.7671 279.904 23.0123L287.291 25.7388C287.971 25.9897 288.707 26.0512 289.419 25.9167L329.239 18.3949C331.413 17.9842 333.508 19.4167 333.914 21.592L359.892 160.874C360.036 161.643 359.95 162.438 359.646 163.159L330.467 232.469C329.645 234.423 327.442 235.395 325.445 234.688Z" fill="#6C6B6B"/>
<path d="M325.445 234.688L288.216 221.494C287.692 221.309 287.136 221.234 286.582 221.275L196.444 228.002C195.426 228.078 194.417 227.761 193.625 227.118L158.922 198.93C158.022 198.199 156.849 197.894 155.707 198.095L35.1368 219.314C32.9691 219.696 30.9005 218.254 30.5077 216.089L5.82596 80.017C5.43032 77.8358 6.88402 75.7488 9.06714 75.3638L93.1147 60.544C94.0597 60.3774 94.9133 59.8766 95.5198 59.133L100.647 52.847C101.254 52.1035 102.107 51.6027 103.052 51.4361L134.912 45.8182C135.957 45.634 136.886 45.0423 137.494 44.1733L141.47 38.4958C142.078 37.6268 143.007 37.0351 144.052 36.8508L186.052 29.4451C186.904 29.2949 187.782 29.4251 188.554 29.8162L192.637 31.885C193.409 32.2761 194.287 32.4063 195.14 32.2561L231.109 25.9137C231.917 25.7712 232.75 25.8808 233.493 26.2275L239.222 28.898C239.966 29.2447 240.799 29.3542 241.607 29.2117L277.824 22.8257C278.522 22.7027 279.239 22.7671 279.904 23.0123L287.291 25.7388C287.971 25.9897 288.707 26.0512 289.419 25.9167L329.239 18.3949C331.413 17.9842 333.508 19.4167 333.914 21.592L359.892 160.874C360.036 161.643 359.95 162.438 359.646 163.159L330.467 232.469C329.645 234.423 327.442 235.395 325.445 234.688Z" stroke="black" stroke-width="2"/>
</g>
<g filter="url(#filter1_d_2_69)">
<rect x="11.9477" y="81.4761" width="36.7581" height="37.1806" rx="4" transform="rotate(-10 11.9477 81.4761)" fill="var(--keyborder)"/>
<rect x="19.4945" y="124.281" width="36.7581" height="37.1806" rx="4" transform="rotate(-10 19.4945 124.281)" fill="var(--keyborder)"/>
<path d="M27.9888 172.45C27.6052 170.275 29.0579 168.2 31.2335 167.816L59.5547 162.823C61.7302 162.439 63.8049 163.892 64.1885 166.067L69.2556 194.805C69.6393 196.98 68.1866 199.055 66.011 199.438L37.6898 204.432C35.5142 204.816 33.4396 203.363 33.056 201.188L27.9888 172.45Z" fill="var(--keyborder)"/>
<rect x="65.6818" y="116.136" width="36.7581" height="37.1806" rx="4" transform="rotate(-10 65.6818 116.136)" fill="var(--keyborder)"/>
<rect x="110.863" y="102.285" width="36.7581" height="37.1806" rx="4" transform="rotate(-10 110.863 102.285)" fill="var(--keyborder)"/>
<rect x="118.411" y="145.089" width="36.7581" height="37.1806" rx="4" transform="rotate(-10 118.411 145.089)" fill="var(--keyborder)"/>
<rect x="73.4807" y="160.367" width="36.7581" height="37.1806" rx="4" transform="rotate(-10 73.4807 160.367)" fill="var(--keyborder)"/>
<rect x="58.1339" y="73.3322" width="36.7581" height="37.1806" rx="4" transform="rotate(-10 58.1339 73.3322)" fill="var(--keyborder)"/>
<rect x="103.316" y="59.4807" width="36.7581" height="37.1806" rx="4" transform="rotate(-10 103.316 59.4807)" fill="var(--keyborder)"/>
<rect x="147.994" y="42.7758" width="36.7581" height="37.1806" rx="4" transform="rotate(-10 147.994 42.7758)" fill="var(--keyborder)"/>
<rect x="194.935" y="38.9122" width="36.7581" height="37.1806" rx="4" transform="rotate(-10 194.935 38.9122)" fill="var(--keyborder)"/>
<rect x="242.335" y="36.4393" width="36.7581" height="37.1806" rx="4" transform="rotate(-10 242.335 36.4393)" fill="var(--keyborder)"/>
<rect x="249.883" y="79.2435" width="36.7581" height="37.1806" rx="4" transform="rotate(-10 249.883 79.2435)" fill="var(--keyborder)"/>
<rect x="257.682" y="123.474" width="36.7581" height="37.1806" rx="4" transform="rotate(-10 257.682 123.474)" fill="var(--keyborder)"/>
<rect x="188.93" y="178.841" width="36.7581" height="37.1806" rx="4" transform="rotate(-10 188.93 178.841)" fill="var(--keyborder)"/>
<rect x="245.61" y="171.209" width="36.758" height="37.1808" rx="4" transform="rotate(5.99996 245.61 171.209)" fill="var(--keyborder)"/>
<rect x="302.981" y="171.391" width="36.758" height="37.1805" rx="4" transform="rotate(17.9999 302.981 171.391)" fill="var(--keyborder)"/>
<rect x="210.281" y="125.948" width="36.7581" height="37.1806" rx="4" transform="rotate(-10 210.281 125.948)" fill="var(--keyborder)"/>
<rect x="155.541" y="85.5802" width="36.7581" height="37.1806" rx="4" transform="rotate(-10 155.541 85.5802)" fill="var(--keyborder)"/>
<rect x="202.483" y="81.7164" width="36.7581" height="37.1806" rx="4" transform="rotate(-10 202.483 81.7164)" fill="var(--keyborder)"/>
<rect x="163.34" y="129.811" width="36.7581" height="37.1806" rx="4" transform="rotate(-10 163.34 129.811)" fill="var(--keyborder)"/>
<rect x="15.3052" y="83.8265" width="30.4252" height="30.775" rx="4" transform="rotate(-10 15.3052 83.8265)" fill="var(--key)"/>
<rect x="22.8526" y="126.631" width="30.4252" height="30.775" rx="4" transform="rotate(-10 22.8526 126.631)" fill="var(--key)"/>
<path d="M31.3455 174.801C30.9619 172.625 32.4146 170.551 34.5901 170.167L56.6746 166.273C58.8502 165.889 60.9248 167.342 61.3084 169.518L65.2633 191.947C65.6469 194.122 64.1942 196.197 62.0186 196.581L39.9342 200.475C37.7586 200.858 35.6839 199.406 35.3003 197.23L31.3455 174.801Z" fill="var(--key)"/>
<rect x="69.0387" y="118.487" width="30.4252" height="30.775" rx="4" transform="rotate(-10 69.0387 118.487)" fill="var(--key)"/>
<rect x="114.219" y="104.636" width="30.4252" height="30.775" rx="4" transform="rotate(-10 114.219 104.636)" fill="var(--key)"/>
<rect x="121.766" y="147.44" width="30.4252" height="30.775" rx="4" transform="rotate(-10 121.766 147.44)" fill="var(--key)"/>
<rect x="76.8385" y="162.718" width="30.4252" height="30.775" rx="4" transform="rotate(-10 76.8385 162.718)" fill="var(--key)"/>
<rect x="61.4915" y="75.6827" width="30.4252" height="30.775" rx="4" transform="rotate(-10 61.4915 75.6827)" fill="var(--key)"/>
<rect x="106.672" y="61.8317" width="30.4252" height="30.775" rx="4" transform="rotate(-10 106.672 61.8317)" fill="var(--key)"/>
<rect x="151.35" y="45.1265" width="30.4252" height="30.775" rx="4" transform="rotate(-10 151.35 45.1265)" fill="var(--key)"/>
<rect x="198.291" y="41.2628" width="30.4252" height="30.775" rx="4" transform="rotate(-10 198.291 41.2628)" fill="var(--key)"/>
<rect x="245.691" y="38.7899" width="30.4252" height="30.775" rx="4" transform="rotate(-10 245.691 38.7899)" fill="var(--key)"/>
<rect x="253.238" y="81.594" width="30.4252" height="30.775" rx="4" transform="rotate(-10 253.238 81.594)" fill="var(--key)"/>
<rect x="261.037" y="125.825" width="30.4252" height="30.775" rx="4" transform="rotate(-10 261.037 125.825)" fill="var(--key)"/>
<rect x="192.286" y="181.192" width="30.4252" height="30.775" rx="4" transform="rotate(-10 192.286 181.192)" fill="var(--key)"/>
<rect x="248.117" y="174.003" width="30.4253" height="30.7751" rx="4" transform="rotate(5.99996 248.117 174.003)" fill="var(--key)"/>
<rect x="305.161" y="175.42" width="30.4253" height="30.7749" rx="4" transform="rotate(17.9999 305.161 175.42)" fill="var(--key)"/>
<rect x="213.638" y="128.298" width="30.4252" height="30.775" rx="4" transform="rotate(-10 213.638 128.298)" fill="var(--key)"/>
<rect x="158.897" y="87.9305" width="30.4252" height="30.775" rx="4" transform="rotate(-10 158.897 87.9305)" fill="var(--key)"/>
<rect x="205.839" y="84.0669" width="30.4252" height="30.775" rx="4" transform="rotate(-10 205.839 84.0669)" fill="var(--key)"/>
<rect x="166.696" y="132.162" width="30.4252" height="30.775" rx="4" transform="rotate(-10 166.696 132.162)" fill="var(--key)"/>
</g>
<rect x="292.31" y="35.639" width="34.2682" height="94.5463" transform="rotate(-11 292.31 35.639)" fill="#D9D9D9"/>
<ellipse cx="313.879" cy="149.413" rx="2.74604" ry="2.74605" transform="rotate(-10 313.879 149.413)" fill="#D9D9D9"/>
<ellipse cx="349.955" cy="152.061" rx="2.74604" ry="2.74605" transform="rotate(-10 349.955 152.061)" fill="#D9D9D9"/>
<rect x="294.46" y="37.3866" width="11.5988" height="5.27216" transform="rotate(-11 294.46 37.3866)" fill="white"/>
<rect x="293.441" y="36.3866" width="32.1656" height="92.0819" transform="rotate(-11 293.441 36.3866)" fill="#303030"/>
<rect x="295.566" y="38.0893" width="9.40653" height="3.73023" transform="rotate(-11 295.566 38.0893)" stroke="white"/>
<rect x="295.719" y="38.1926" width="7.56838" height="3.44017" transform="rotate(-11 295.719 38.1926)" fill="white"/>
<rect x="306.115" y="37.1356" width="0.630698" height="1.26139" transform="rotate(-11 306.115 37.1356)" stroke="white" stroke-width="0.630697"/>
<ellipse cx="320.651" cy="36.7195" rx="0.473024" ry="0.473023" transform="rotate(-11 320.651 36.7195)" fill="white"/>
<path d="M318.428 36.0272L318.928 35.4907C319.141 35.2621 319.397 35.0774 319.681 34.9472V34.9472C319.999 34.8015 320.345 34.7273 320.695 34.7299L320.767 34.7304C321.157 34.7332 321.542 34.8201 321.895 34.9851L322.452 35.2449" stroke="white"/>
<path d="M316.949 35.0297L317.76 34.1328C318.097 33.7601 318.505 33.4585 318.961 33.2458V33.2458C319.476 33.0052 320.039 32.8842 320.607 32.8918L320.723 32.8934C321.351 32.9018 321.969 33.048 322.533 33.3218L323.449 33.7661" stroke="white"/>
<path d="M286.089 30.748L329.372 23.1162L355.067 156.731L310.157 153.924L286.089 30.748Z" fill="#494949" fill-opacity="0.4"/>
<defs>
<filter id="filter0_d_2_69" x="0.760864" y="17.3245" width="364.199" height="226.594" filterUnits="userSpaceOnUse" color-interpolation-filters="sRGB">
<feFlood flood-opacity="0" result="BackgroundImageFix"/>
<feColorMatrix in="SourceAlpha" type="matrix" values="0 0 0 0 0 0 0 0 0 0 0 0 0 0 0 0 0 0 127 0" result="hardAlpha"/>
<feOffset dy="4"/>
<feGaussianBlur stdDeviation="2"/>
<feComposite in2="hardAlpha" operator="out"/>
<feColorMatrix type="matrix" values="0 0 0 0 0 0 0 0 0 0 0 0 0 0 0 0 0 0 0.25 0"/>
<feBlend mode="normal" in2="BackgroundImageFix" result="effect1_dropShadow_2_69"/>
<feBlend mode="normal" in="SourceGraphic" in2="effect1_dropShadow_2_69" result="shape"/>
</filter>
<filter id="filter1_d_2_69" x="9.78081" y="29.8895" width="329.92" height="191.982" filterUnits="userSpaceOnUse" color-interpolation-filters="sRGB">
<feFlood flood-opacity="0" result="BackgroundImageFix"/>
<feColorMatrix in="SourceAlpha" type="matrix" values="0 0 0 0 0 0 0 0 0 0 0 0 0 0 0 0 0 0 127 0" result="hardAlpha"/>
<feOffset dy="2"/>
<feGaussianBlur stdDeviation="1.4"/>
<feComposite in2="hardAlpha" operator="out"/>
<feColorMatrix type="matrix" values="0 0 0 0 0 0 0 0 0 0 0 0 0 0 0 0 0 0 0.52 0"/>
<feBlend mode="darken" in2="BackgroundImageFix" result="effect1_dropShadow_2_69"/>
<feBlend mode="normal" in="SourceGraphic" in2="effect1_dropShadow_2_69" result="shape"/>
</filter>
</defs>
</svg>
