<svg width="190" height="154" viewBox="0 0 190 154" fill="none" xmlns="http://www.w3.org/2000/svg">
<path fill-rule="evenodd" clip-rule="evenodd" d="M72.2173 126.813C95.0366 126.915 114.353 119.5 128.934 105.224C143.442 91.02 149.514 73.7446 145.795 53.5417C143.289 39.9296 135.878 29.0371 125.595 20.1026C113.229 9.35731 98.6499 3.48445 82.4253 2.14064C57.0495 0.0388596 34.7674 6.988 17.0476 26.0248C7.76836 32.5049 0.81763 46.4063 1.8398 60.5122C0.531052 80.1014 8.22536 95.5076 22.74 108.185C37.4841 121.062 55.0384 126.539 72.2173 126.813ZM149.279 63.0439C166.829 62.1238 180.549 67.8124 188.049 84.7658C188.033 84.0607 188.008 83.3189 187.72 82.6998C187.461 82.1424 187.21 81.5789 186.958 81.0149L186.958 81.0137C186.156 79.2154 185.351 77.4122 184.283 75.7868C179.559 68.6021 172.577 64.5994 164.494 62.3111C159.987 61.0352 155.373 60.8949 150.731 61.2466C149.694 61.3252 148.745 61.4837 149.279 63.0439Z" fill="black"/>
<path fill-rule="evenodd" clip-rule="evenodd" d="M1.09958 84.7886C-1.57626 68.3787 0.672472 45.5886 11.5074 29.2339C12.9896 28.4637 19.1386 20.9914 20.3902 19.8852C33.0464 8.69906 47.8692 2.4661 64.5431 0.591066C82.949 -1.47874 100.339 1.83786 116.335 11.325C120.637 13.8758 124.686 16.9744 128.442 20.2866C131.471 22.9572 139.832 33.9359 141.842 36.8934C142.04 37.3072 142.237 37.7214 142.435 38.1357C142.869 39.048 143.304 39.9603 143.748 40.8683C144.001 41.3854 144.217 41.9657 144.433 42.5466C144.936 43.8957 145.441 45.2478 146.404 45.8188C147.415 46.4181 148.864 46.2768 150.312 46.1354C150.312 46.1354 162.524 47.6427 163.617 48.0217C174.895 51.9313 183.638 58.6649 188.025 70.1271C191.05 78.0307 190.525 85.8783 186.962 93.5267C186.15 95.2702 184.867 98.5368 183.64 100.377C180.983 103.443 177.285 107.12 177.077 107.29C166.618 115.826 154.667 118.548 141.5 116.353C140.044 116.11 139.524 116.558 138.938 117.807C133.337 129.736 125.374 139.662 113.829 146.288C97.0707 155.905 56.5 154.5 44.5 149C30 143 8.25659 108.843 2.99997 91.5L1.09958 84.7886ZM128.934 105.224C114.353 119.5 95.0366 126.915 72.2173 126.813C55.0384 126.539 37.4841 121.062 22.74 108.185C8.22536 95.5076 0.531052 80.1014 1.8398 60.5122C0.81763 46.4063 7.76836 32.5049 17.0476 26.0248C34.7674 6.988 57.0495 0.0388596 82.4253 2.14064C98.6499 3.48445 113.229 9.35731 125.595 20.1026C135.878 29.0371 143.289 39.9296 145.795 53.5417C149.514 73.7446 143.442 91.02 128.934 105.224ZM159.268 99.1065C154.813 101.234 150.22 102.315 145.555 101.271L149.704 68.6511C156.579 67.3837 165.787 73.185 168.143 80.5873C170.424 87.7543 166.665 95.5754 159.268 99.1065ZM188.049 84.7658C180.549 67.8124 166.829 62.1238 149.279 63.0439C148.745 61.4837 149.694 61.3252 150.731 61.2466C155.373 60.8949 159.987 61.0352 164.494 62.3111C172.577 64.5994 179.559 68.6021 184.283 75.7868C185.351 77.4122 186.156 79.2154 186.958 81.0137L186.958 81.0149C187.21 81.5789 187.461 82.1424 187.72 82.6998C188.008 83.3189 188.033 84.0607 188.049 84.7658Z" fill="black"/>
<path fill-rule="evenodd" clip-rule="evenodd" d="M72.2173 126.813C95.0366 126.915 114.353 119.5 128.934 105.224C143.442 91.02 149.514 73.7446 145.795 53.5417C143.289 39.9296 135.878 29.0371 125.595 20.1026C113.229 9.35731 98.6499 3.48445 82.4253 2.14064C57.0495 0.0388596 34.7674 6.988 17.0476 26.0248C7.76836 32.5049 0.81763 46.4063 1.8398 60.5122C0.531052 80.1014 8.22536 95.5076 22.74 108.185C37.4841 121.062 55.0384 126.539 72.2173 126.813ZM149.279 63.0439C166.829 62.1238 180.549 67.8124 188.049 84.7658C188.033 84.0607 188.008 83.3189 187.72 82.6998C187.461 82.1424 187.21 81.5789 186.958 81.0149L186.958 81.0137C186.156 79.2154 185.351 77.4122 184.283 75.7868C179.559 68.6021 172.577 64.5994 164.494 62.3111C159.987 61.0352 155.373 60.8949 150.731 61.2466C149.694 61.3252 148.745 61.4837 149.279 63.0439Z" fill="black"/>
<path d="M71.8156 127.362C54.6367 127.088 37.0477 120.918 22.3035 108.041C7.7889 95.3639 0.121366 79.4688 1.43011 59.8797C2.30815 46.7372 7.71201 35.4416 16.6111 25.881C34.3309 6.84429 56.613 -0.104846 81.9888 1.99693C98.2134 3.34074 112.792 9.2136 125.159 19.9589C135.441 28.8934 143.315 39.9494 145.82 53.5615C149.539 73.7645 143.565 91.4876 129.057 105.692C114.476 119.968 94.6349 127.464 71.8156 127.362ZM73.3894 117C91.5855 116.663 107.223 111.267 120.232 99.0876C140.012 80.5693 141.6 51.7644 123.878 31.3012C114.196 20.1224 101.809 13.4936 87.3757 10.9035C65.6985 7.01333 45.9733 11.4514 29.0527 25.9863C7.23895 44.7244 5.51119 75.6804 25.1146 96.6391C38.2936 110.729 55.0246 116.623 73.3894 117Z" fill="white"/>
<path d="M149.308 63.1017C148.773 61.5415 149.485 61.204 150.522 61.1254C155.164 60.7737 160.121 61.0761 164.628 62.352C172.711 64.6403 179.588 68.6599 184.311 75.8446C185.715 77.9801 186.663 80.4227 187.749 82.7576C188.037 83.3767 188.062 84.1185 188.078 84.8236C180.578 67.8702 166.857 62.1816 149.308 63.1017Z" fill="white"/>
<path d="M73.417 117.553C55.0522 117.176 38.3212 111.282 25.1421 97.1917C5.53874 76.233 7.2665 45.277 29.0802 26.5389C46.0008 12.004 65.7261 7.56591 87.4033 11.4561C101.836 14.0462 114.224 20.675 123.905 31.8538C141.628 52.317 140.04 81.1219 120.26 99.6402C107.251 111.82 91.6131 117.216 73.417 117.553ZM13.9012 65.2383C14.306 63.9542 14.6686 62.655 15.1222 61.3885C20.2184 47.157 30.0152 37.08 43.3831 30.6444C63.1717 21.1178 83.3496 20.9621 103.294 30.1287C117.183 36.5126 127.37 46.7461 132.641 61.4171C133.087 62.6571 133.464 63.9214 133.873 65.1744C134.226 64.4416 134.241 63.7728 134.224 63.1048C133.84 47.9502 127.365 35.6372 115.692 26.4551C94.838 10.0515 71.6582 7.51864 47.2829 17.2246C32.8681 22.9644 22.211 33.0632 16.4265 47.7962C14.2409 53.3628 13.3212 59.157 13.9012 65.2383Z" fill="black"/>
<path d="M73.1934 117.103C29 117.103 9.99999 78.9999 13 70.4999C13 70.4999 14.8185 60.1715 15.5 59.4999C22.5 44.4999 30 37.4999 44 29.9999C64.5 21.1246 83.9089 20.9978 103.853 30.1644C117.742 36.5483 128 47.4998 133 62.4998C134 62.9998 138.284 81.1644 120.819 98.58C110 110 92 117.103 73.1934 117.103Z" fill="#654E1D"/>
<path d="M12.5 68.9999C11.5 62.9999 14.2408 53.3632 16.4263 47.7965C22.2108 33.0635 32.8679 22.9648 47.2826 17.225C71.658 7.51901 94.8377 10.0519 115.691 26.4554C127.365 35.6375 134.616 48.8454 135 63.9999C135.017 64.6679 134.853 68.7671 134.5 69.4999C134.091 68.2469 133.086 62.6574 132.641 61.4175C127.369 46.7465 117.183 36.513 103.293 30.1291C83.3494 20.9625 63.1715 21.1181 43.3829 30.6448C30.015 37.0804 20.2182 47.1573 15.122 61.3888C14.6684 62.6554 12.9048 67.7158 12.5 68.9999Z" fill="white"/>
</svg>
