<svg width="110" height="186" viewBox="0 0 110 186" fill="none" xmlns="http://www.w3.org/2000/svg">
<path d="M2.94649 27.9999C2.94649 12.5359 15.4825 -6.10352e-05 30.9465 -6.10352e-05H82C97.464 -6.10352e-05 110 12.536 110 27.9999V157.625C110 173.089 97.464 185.625 82 185.625H30.9465C15.4825 185.625 2.9465 173.089 2.94649 157.625L2.94648 137.991L2.94649 109.261V109.261C1.31919 109.261 2.44291e-06 107.942 5.45638e-06 106.315L2.77324e-05 94.2856C3.07459e-05 92.6584 1.31919 91.3392 2.94646 91.3392V91.3392V90.8481V90.8481C1.31919 90.8481 3.31887e-05 89.529 3.31887e-05 87.9017V74.6428C3.31887e-05 73.0155 1.31919 71.6964 2.94646 71.6964V71.6964L2.94649 27.9999Z" fill="white"/>
<g filter="url(#filter0_i_3_117)">
<path d="M55.5269 6.95749L55.923 67.5551C55.9478 71.3491 52.7313 74.3579 48.9474 74.0801L9.47008 71.1827C6.07395 70.9335 3.44586 68.1054 3.44586 64.7002V25.571C3.44586 25.2456 3.4703 24.9206 3.51897 24.5989L3.86923 22.2832L4.41136 19.7732L5.14196 17.5267C5.2397 17.2262 5.35922 16.9332 5.49958 16.65L6.33853 14.9576L6.33939 14.9559L6.92279 13.8016C7.09446 13.4619 7.29562 13.138 7.52397 12.8335L8.60176 11.3965L10.0331 9.48804L11.7466 7.64961C11.9964 7.38158 12.2685 7.13516 12.5598 6.91297L14.7583 5.23632L16.9406 3.87412L20.8887 1.90005C21.4682 1.61028 22.0879 1.40879 22.727 1.30227L27.0101 0.588409C27.3633 0.52955 27.7207 0.499969 28.0787 0.499969H49.0271C52.6004 0.499969 55.5036 3.38429 55.5269 6.95749Z" stroke="#E2E2E2"/>
</g>
<g filter="url(#filter1_i_3_117)">
<path d="M56.9277 6.95749L56.5316 67.5602C56.5068 71.3525 59.7205 74.3606 63.5029 74.0855L103.471 71.1787C106.869 70.9316 109.5 68.1027 109.5 64.6958V25.6324C109.5 25.2692 109.469 24.9065 109.409 24.5484L109.026 22.2828L108.534 19.7728L107.606 17.0745L106.605 14.9536L105.19 12.2135C104.907 11.6668 104.549 11.163 104.125 10.7172L101.204 7.64657C100.953 7.38268 100.681 7.14035 100.389 6.92213L98.1363 5.23594L96.0028 3.87294L92.057 1.90005C91.4775 1.61028 90.8579 1.40879 90.2187 1.30227L85.9356 0.588409C85.5824 0.52955 85.225 0.499969 84.867 0.499969H63.4275C59.8543 0.499969 56.951 3.38429 56.9277 6.95749Z" stroke="#E2E2E2"/>
</g>
<rect x="52.054" y="25.5355" width="9.08481" height="30.2827" rx="1" fill="#373737"/>
<defs>
<filter id="filter0_i_3_117" x="2.94586" y="-3.05176e-05" width="53.4773" height="78.598" filterUnits="userSpaceOnUse" color-interpolation-filters="sRGB">
<feFlood flood-opacity="0" result="BackgroundImageFix"/>
<feBlend mode="normal" in="SourceGraphic" in2="BackgroundImageFix" result="shape"/>
<feColorMatrix in="SourceAlpha" type="matrix" values="0 0 0 0 0 0 0 0 0 0 0 0 0 0 0 0 0 0 127 0" result="hardAlpha"/>
<feOffset dy="4"/>
<feGaussianBlur stdDeviation="2"/>
<feComposite in2="hardAlpha" operator="arithmetic" k2="-1" k3="1"/>
<feColorMatrix type="matrix" values="0 0 0 0 0 0 0 0 0 0 0 0 0 0 0 0 0 0 0.25 0"/>
<feBlend mode="normal" in2="shape" result="effect1_innerShadow_3_117"/>
</filter>
<filter id="filter1_i_3_117" x="56.0314" y="-3.05176e-05" width="53.9684" height="78.603" filterUnits="userSpaceOnUse" color-interpolation-filters="sRGB">
<feFlood flood-opacity="0" result="BackgroundImageFix"/>
<feBlend mode="normal" in="SourceGraphic" in2="BackgroundImageFix" result="shape"/>
<feColorMatrix in="SourceAlpha" type="matrix" values="0 0 0 0 0 0 0 0 0 0 0 0 0 0 0 0 0 0 127 0" result="hardAlpha"/>
<feOffset dy="4"/>
<feGaussianBlur stdDeviation="2"/>
<feComposite in2="hardAlpha" operator="arithmetic" k2="-1" k3="1"/>
<feColorMatrix type="matrix" values="0 0 0 0 0 0 0 0 0 0 0 0 0 0 0 0 0 0 0.25 0"/>
<feBlend mode="normal" in2="shape" result="effect1_innerShadow_3_117"/>
</filter>
</defs>
</svg>
